<?xml version="1.0" encoding="UTF-8" standalone="no"?>
<!-- Created with Inkscape (http://www.inkscape.org/) -->

<svg
   xmlns:dc="http://purl.org/dc/elements/1.1/"
   xmlns:cc="http://creativecommons.org/ns#"
   xmlns:rdf="http://www.w3.org/1999/02/22-rdf-syntax-ns#"
   xmlns:svg="http://www.w3.org/2000/svg"
   xmlns="http://www.w3.org/2000/svg"
   xmlns:sodipodi="http://sodipodi.sourceforge.net/DTD/sodipodi-0.dtd"
   xmlns:inkscape="http://www.inkscape.org/namespaces/inkscape"
   width="210mm"
   height="297mm"
   id="svg2"
   version="1.1"
   inkscape:version="0.48.5 r10040"
   inkscape:export-filename="/Users/yetzt/dev/wikigame/assets/images/wikigame.png"
   inkscape:export-xdpi="125.36"
   inkscape:export-ydpi="125.36"
   sodipodi:docname="Neues Dokument 1">
  <defs
     id="defs4" />
  <sodipodi:namedview
     id="base"
     pagecolor="#ffffff"
     bordercolor="#666666"
     borderopacity="1.0"
     inkscape:pageopacity="0.0"
     inkscape:pageshadow="2"
     inkscape:zoom="1"
     inkscape:cx="-13.501299"
     inkscape:cy="523.0076"
     inkscape:document-units="px"
     inkscape:current-layer="layer1"
     showgrid="false"
     inkscape:window-width="1235"
     inkscape:window-height="756"
     inkscape:window-x="45"
     inkscape:window-y="0"
     inkscape:window-maximized="1" />
  <metadata
     id="metadata7">
    <rdf:RDF>
      <cc:Work
         rdf:about="">
        <dc:format>image/svg+xml</dc:format>
        <dc:type
           rdf:resource="http://purl.org/dc/dcmitype/StillImage" />
        <dc:title></dc:title>
      </cc:Work>
    </rdf:RDF>
  </metadata>
  <g
     inkscape:label="Ebene 1"
     inkscape:groupmode="layer"
     id="layer1">
    <g
       id="g3861">
      <g
         transform="matrix(1.5081126,-0.29561691,-0.18870194,0.95827612,99.14703,24.90076)"
         id="g3844"
         style="font-size:50.01895905px;font-style:normal;font-weight:normal;line-height:125%;letter-spacing:0px;word-spacing:0px;fill:#ff0000;fill-opacity:1;stroke:#000000;stroke-opacity:1;font-family:Sans">
        <path
           inkscape:connector-curvature="0"
           id="path3846"
           d="m -44.15625,371.3125 c -10.119937,0.35069 -23.760929,1.96083 -27.25,13.3125 -4.81936,15.73727 -1.668811,32.67302 -2.59375,48.90625 0.164434,10.55703 -0.189607,24.49596 10.15625,30.5 4.638752,3.34928 9.740911,6.45543 15.71875,6.96875 13.145303,1.47852 27.585004,2.33441 39.8125,-3.46875 C 1.7818629,461.26091 1.3418694,447.46039 1.5,436.9375 0.54999533,420.94003 3.7841134,404.20134 -1.15625,388.71875 c -1.4908045,-5.44606 -6.2749434,-8.56903 -10.6875,-11.28125 -8.969332,-6.79937 -21.579357,-6.14697 -32.3125,-6.125 z m -79.375,13.78125 c -10.71692,0.67479 -23.66646,0.19189 -31.46875,8.8125 -8.29584,13.52905 -5.50022,30.45049 -6.15625,45.5625 0.30395,38.34942 -0.60102,76.73348 0.4375,115.0625 0.90115,9.38391 2.60648,21.20023 12.5625,25.09375 9.87665,8.35268 24.17022,7.16379 36.375,7.59375 10.50066,-0.72644 23.685861,-0.22506 30.8125,-9.28125 8.131667,-14.45286 4.983099,-32.1824 5.75,-48.125 -1.113798,-17.03885 3.124711,-35.65256 -4.78125,-51.46875 -3.534025,-6.92258 -10.625146,-10.55953 -17,-14.28125 -6.74776,-2.70212 -14.57991,-2.71321 -21.40625,-0.28125 0.31779,-13.95104 -0.609,-30.21059 0.40625,-42.96875 0,11.83333 0,23.66667 0,35.5 7.45332,-1.23457 5.73273,6.70477 14.78125,3.875 9.333333,0 18.666667,0 28,0 -0.893421,-18.77464 2.31162,-38.28616 -3.15625,-56.53125 -1.479739,-5.54081 -6.091882,-9.18098 -10.84375,-11.78125 -9.540146,-7.27848 -22.85821,-6.52631 -34.3125,-6.78125 z M 28.65625,470 c 5.218437,49.33337 10.439366,98.66647 15.65625,148 7.05508,-1.49951 5.326979,6.75405 13.625,3.875 7.322917,0 14.645833,0 21.96875,0 1.050453,-12.63468 2.08192,-25.27095 3.125,-37.90625 0.948712,11.34368 1.891207,22.68789 2.84375,34.03125 7.150597,-1.52977 5.274272,6.73412 13.65625,3.875 7.1875,0 14.375,0 21.5625,0 3.21975,-33.68431 6.36965,-67.37553 9.5625,-101.0625 0,32.39583 0,64.79167 0,97.1875 7.47369,-1.24452 5.75663,6.70171 14.8125,3.875 6.65625,0 13.3125,0 19.96875,0 0,-17.22917 0,-34.45833 0,-51.6875 9.46621,-0.36509 21.52928,0.87429 28.25,-7 6.83422,-12.33562 3.69398,-27.41433 4.53125,-40.90625 -0.91187,-14.23441 2.43234,-29.9128 -4.21875,-43.125 -2.58186,-3.79774 -7.16946,-5.14878 -10.53125,-8.0625 -13.45257,-5.81252 -28.917,-2.32394 -43.21875,-3.3125 -6.87399,-3.99335 -11.51794,6.73548 -10.88335,1.19115 -2.65679,-2.88012 -11.23097,-0.32836 -16.0854,-1.19115 -6.13087,-0.002 -14.155716,-2.0107 -11.82355,6.89943 -0.40256,7.70019 -0.80513,15.40038 -1.2077,23.10057 -0.799871,-8.70754 -1.53468,-17.42137 -2.375,-26.125 -7.096213,1.49656 -5.277193,-6.74225 -13.625,-3.875 -5.5889,0.67415 -13.652229,-1.3447 -17.709443,0.99643 -0.764239,9.61487 -1.504356,19.2317 -2.259307,28.84732 -0.563702,-8.65617 -1.118113,-17.31295 -1.6875,-25.96875 -7.222702,1.54835 -5.243131,-6.7235 -13.6875,-3.875 -6.822917,0 -13.645833,0 -20.46875,0 0.07292,0.73958 0.145833,1.47917 0.21875,2.21875 z M 1.4375,495.9375 c -5.8995467,-0.66286 -11.548503,3.75347 -11.34375,9.84375 0.8190309,4.95391 -4.312344,3.49414 -3.1875,8.375 -4.982014,-6.02834 -14.444427,-5.25094 -21.46875,-3.71875 -8.429332,2.7203 -5.918331,13.94391 -6.34375,20.5625 0.65322,12.08075 -1.274719,24.51021 0.875,36.40625 0.492361,4.27673 5.234867,4.77023 7.5,7.125 5.347495,4.64301 13.61261,3.59684 20.09375,2.28125 3.3079201,-0.48591 4.2886392,-4.90889 8.15625,-3.21875 -1.1925362,7.43212 10.0549307,2.42424 14.84375,3.875 0,-17.15625 0,-34.3125 0,-51.46875 7.553536,2.82625 5.079528,-9.73742 3.84375,-12.34375 -6.1788222,0.85563 -3.807436,-3.29312 1,-1.6875 -0.658014,-5.33157 2.868429,-14.8476 -5.78125,-12.1875 1.582992,-6.37097 -4.2414799,-3.16659 -8.1875,-3.84375 z M -118,500.375 c -0.29667,16.67296 0.57813,35.36149 -0.40625,50.90625 0.27337,-17.11304 -0.53286,-34.38208 0.375,-51.40625 l 0.0312,0.5 z"
           style="font-size:180.0682373px;font-variant:normal;font-stretch:condensed;text-align:start;line-height:125%;writing-mode:lr-tb;text-anchor:start;fill:#ffffff;stroke:#ffffff;stroke-width:14.23480988;stroke-linecap:round;stroke-linejoin:round;stroke-miterlimit:4;stroke-opacity:1;stroke-dasharray:none;font-family:Compacta BT;-inkscape-font-specification:Compacta BT Condensed" />
      </g>
      <g
         transform="matrix(1.5081126,-0.29561691,-0.18870194,0.95827612,107.14703,26.900755)"
         id="text2985"
         style="font-size:50.01895905px;font-style:normal;font-weight:normal;line-height:125%;letter-spacing:0px;word-spacing:0px;fill:#000000;fill-opacity:1;stroke:none;font-family:Sans">
        <path
           sodipodi:nodetypes="ccsscscssccccsscscsccccccccccccsccccccccccccccccccccccccccccccccccscsscsccccccccccccsccccccccccccccccccsscscsscccccccccccccccccccccccc"
           inkscape:connector-curvature="0"
           id="path3026"
           d="m -39.254322,373.21014 c -13.347951,1.6e-4 -22.162706,1.97147 -26.40625,5.90625 -4.243568,3.93508 -6.34375,12.06148 -6.34375,24.40625 l 0,32.53125 c 0,12.11346 2.083587,20.17542 6.25,24.1875 4.166388,3.93495 12.837611,5.90625 26.03125,5.90625 13.733652,0 22.725129,-1.9713 26.96875,-5.90625 4.3206464,-3.93493 6.4687502,-11.99689 6.4687502,-24.1875 l 0,-32.53125 c 0,-12.1133 -2.1481038,-20.17526 -6.4687502,-24.1875 -4.243621,-4.08909 -13.07497,-6.12484 -26.5,-6.125 z m -81.249998,13.84375 c -16.27987,1.9e-4 -26.81012,2.19607 -31.59375,6.59375 -4.7065,4.39805 -7.0625,14.99274 -7.0625,31.8125 l 0,117.46875 c 0,16.74279 2.356,27.36873 7.0625,31.84375 4.70648,4.39787 15.23672,6.59375 31.59375,6.59375 15.66253,0 25.808088,-2.14803 30.437498,-6.46875 4.706413,-4.39786 7.0625,-15.0716 7.0625,-31.96875 l 0,-45 c -8.4e-5,-11.26463 -2.131521,-19.71129 -6.375,-25.34375 -4.166477,-5.70941 -10.41726,-8.56238 -18.749998,-8.5625 -3.62637,1.2e-4 -7.02417,0.60938 -10.1875,1.84375 -3.08627,1.23461 -5.71469,2.99795 -7.875,5.3125 l 0,-50.4375 c -4e-5,-3.16322 0.4159,-5.29466 1.1875,-6.375 0.77152,-1.15717 2.03787,-1.74983 3.8125,-1.75 1.85168,1.7e-4 3.1659,0.64068 3.9375,1.875 0.84867,1.1575 1.24995,3.24109 1.25,6.25 l 0,33.5625 32.999998,0 0,-28.84375 c 0,-16.74255 -2.356087,-27.28945 -7.0625,-31.6875 -4.62941,-4.47484 -14.774968,-6.71856 -30.437498,-6.71875 z m 81.468748,8.125 c 1.543073,1.3e-4 2.632713,0.64064 3.25,1.875 0.694358,1.15746 1.031207,3.14536 1.03125,6 l 0,33.21875 c -4.3e-5,3.31772 -0.336892,5.54484 -1.03125,6.625 -0.617287,1.00305 -1.706927,1.50002 -3.25,1.5 -1.620306,2e-5 -2.82223,-0.64049 -3.59375,-1.875 -0.771591,-1.31162 -1.156285,-3.39522 -1.15625,-6.25 l 0,-33.21875 c -3.5e-5,-3.08611 0.368065,-5.16969 1.0625,-6.25 0.694365,-1.08005 1.912884,-1.62487 3.6875,-1.625 z m 69.702626,74.60302 15.46875,146.21875 26.125,0 7.03125,-85.90625 1.21875,0 7.21875,85.90625 25.749996,0 13.8125,-146.21875 -23.5625,0 -4.499996,86.0625 -1.21875,0 -7.75,-86.0625 -21.78125,0 -6.6875,86.0625 -1.25,0 -5.625,-86.0625 z m 101.999996,0 0,146.21875 24.96875,0 0,-51.6875 5.78125,0 c 11.19559,0 18.50646,-1.69009 21.90625,-5.03125 3.39966,-3.39966 5.09375,-11.6863 5.09375,-24.875 l 0,-34.90625 c 0,-13.01257 -1.69409,-21.22514 -5.09375,-24.625 -3.34117,-3.39959 -10.73119,-5.2588 -22.0625,-5.09375 z m 24.96875,19.0625 1.84375,0 c 2.52045,1.3e-4 4.1442,0.46464 4.90625,1.34375 0.76197,0.87937 1.15621,3.51017 1.15625,7.90625 l 0,38.15625 c -4e-5,4.04458 -0.39428,6.53097 -1.15625,7.46875 -0.70343,0.87931 -2.2179,1.31257 -4.5625,1.3125 l -2.1875,0 z M 2.1298187,497.91557 c -3.793162,7e-5 -6.4378889,0.7523 -7.9375,2.28125 -1.4996227,1.52909 -2.25,4.42579 -2.25,8.71875 l 0,2.875 -2.8124997,0 0,8.34375 2.8124997,0 0,51.46875 10.84375,0 0,-51.46875 4.84375,0 0,-8.34375 -4.84375,0 0,-2.78125 c -1.5e-5,-0.97027 0.176539,-1.68572 0.5,-2.15625 0.323432,-0.49981 0.823686,-0.74993 1.5,-0.75 l 2.84375,0 0,-8.1875 z m -28.5312497,13.53125 c -5.08695,6e-5 -8.44527,0.75044 -10.0625,2.25 -1.617238,1.49967 -2.4375,4.60787 -2.4375,9.3125 l 0,37.46875 c 0,4.61648 0.818416,7.68973 2.40625,9.21875 1.587825,1.49962 4.878108,2.25 9.90625,2.25 5.233943,0 8.663991,-0.75038 10.28125,-2.25 1.646613,-1.49961 2.46875,-4.57286 2.46875,-9.21875 l 0,-37.46875 c 0,-4.61641 -0.822137,-7.68967 -2.46875,-9.21875 -1.617259,-1.55837 -4.977425,-2.34369 -10.09375,-2.34375 z m 0.09375,8.375 c 0.58807,5e-5 0.9835,0.24833 1.21875,0.71875 0.264622,0.44112 0.406233,1.19334 0.40625,2.28125 l 0,37.75 c -1.7e-5,1.2644 -0.141628,2.1196 -0.40625,2.53125 -0.23525,0.38226 -0.63068,0.56251 -1.21875,0.5625 -0.617504,10e-6 -1.080971,-0.24827 -1.375,-0.71875 -0.294056,-0.49986 -0.437514,-1.28703 -0.4375,-2.375 l 0,-37.75 c -1.4e-5,-1.17613 0.110349,-1.96329 0.375,-2.375 0.264625,-0.41161 0.761187,-0.62495 1.4375,-0.625 z m -94.884139,-27.58043 c 1.85168,9e-5 3.1659,0.6406 3.9375,1.875 0.84867,1.23457 1.24995,3.31816 1.25,6.25 l 0,47.09375 c -5e-5,3.08626 -0.38475,5.2177 -1.15625,6.375 -0.77161,1.15736 -2.10241,1.71877 -4.03125,1.71875 -1.77463,2e-5 -3.04098,-0.5448 -3.8125,-1.625 -0.7716,-1.15731 -1.18754,-3.30534 -1.1875,-6.46875 l 0,-47.09375 c -4e-5,-3.31761 0.36806,-5.49689 1.0625,-6.5 0.77151,-1.08009 2.08572,-1.62491 3.9375,-1.625 z"
           style="font-size:180.0682373px;font-variant:normal;font-stretch:condensed;text-align:start;line-height:125%;writing-mode:lr-tb;text-anchor:start;font-family:Compacta BT;-inkscape-font-specification:Compacta BT Condensed" />
      </g>
      <g
         id="text2991"
         style="font-size:65.83947754px;font-style:normal;font-weight:normal;line-height:125%;letter-spacing:0px;word-spacing:0px;fill:#000000;fill-opacity:1;stroke:none;font-family:Sans" />
      <g
         transform="matrix(1.645987,0,0,1.645987,-21.333439,-407.41512)"
         id="text2995"
         style="font-size:40px;font-style:normal;font-weight:normal;line-height:125%;letter-spacing:0px;word-spacing:0px;fill:#000000;fill-opacity:1;stroke:none;font-family:Sans" />
      <g
         id="text3021"
         style="font-size:25.09165573px;font-style:normal;font-weight:normal;line-height:125%;letter-spacing:0px;word-spacing:0px;fill:#000000;fill-opacity:1;stroke:none;font-family:Sans" />
      <g
         style="font-size:50.01895904999999232px;font-style:normal;font-weight:normal;line-height:125%;letter-spacing:0px;word-spacing:0px;fill:#ff91f0;fill-opacity:1;stroke:none;font-family:Sans"
         id="g3043"
         transform="matrix(1.5081126,-0.29561691,-0.18870194,0.95827612,99.14703,24.900755)">
        <path
           style="font-size:180.06823729999999273px;font-variant:normal;font-stretch:condensed;text-align:start;line-height:125%;writing-mode:lr-tb;text-anchor:start;fill:#ff91f0;font-family:Compacta BT;-inkscape-font-specification:Compacta BT Condensed;fill-opacity:1"
           d="m -39.254322,373.21014 c -13.347951,1.6e-4 -22.162706,1.97147 -26.40625,5.90625 -4.243568,3.93508 -6.34375,12.06148 -6.34375,24.40625 l 0,32.53125 c 0,12.11346 2.083587,20.17542 6.25,24.1875 4.166388,3.93495 12.837611,5.90625 26.03125,5.90625 13.733652,0 22.725129,-1.9713 26.96875,-5.90625 4.3206464,-3.93493 6.4687502,-11.99689 6.4687502,-24.1875 l 0,-32.53125 c 0,-12.1133 -2.1481038,-20.17526 -6.4687502,-24.1875 -4.243621,-4.08909 -13.07497,-6.12484 -26.5,-6.125 z m -81.249998,13.84375 c -16.27987,1.9e-4 -26.81012,2.19607 -31.59375,6.59375 -4.7065,4.39805 -7.0625,14.99274 -7.0625,31.8125 l 0,117.46875 c 0,16.74279 2.356,27.36873 7.0625,31.84375 4.70648,4.39787 15.23672,6.59375 31.59375,6.59375 15.66253,0 25.808088,-2.14803 30.437498,-6.46875 4.706413,-4.39786 7.0625,-15.0716 7.0625,-31.96875 l 0,-45 c -8.4e-5,-11.26463 -2.131521,-19.71129 -6.375,-25.34375 -4.166477,-5.70941 -10.41726,-8.56238 -18.749998,-8.5625 -3.62637,1.2e-4 -7.02417,0.60938 -10.1875,1.84375 -3.08627,1.23461 -5.71469,2.99795 -7.875,5.3125 l 0,-50.4375 c -4e-5,-3.16322 0.4159,-5.29466 1.1875,-6.375 0.77152,-1.15717 2.03787,-1.74983 3.8125,-1.75 1.85168,1.7e-4 3.1659,0.64068 3.9375,1.875 0.84867,1.1575 1.24995,3.24109 1.25,6.25 l 0,33.5625 32.999998,0 0,-28.84375 c 0,-16.74255 -2.356087,-27.28945 -7.0625,-31.6875 -4.62941,-4.47484 -14.774968,-6.71856 -30.437498,-6.71875 z m 81.468748,8.125 c 1.543073,1.3e-4 2.632713,0.64064 3.25,1.875 0.694358,1.15746 1.031207,3.14536 1.03125,6 l 0,33.21875 c -4.3e-5,3.31772 -0.336892,5.54484 -1.03125,6.625 -0.617287,1.00305 -1.706927,1.50002 -3.25,1.5 -1.620306,2e-5 -2.82223,-0.64049 -3.59375,-1.875 -0.771591,-1.31162 -1.156285,-3.39522 -1.15625,-6.25 l 0,-33.21875 c -3.5e-5,-3.08611 0.368065,-5.16969 1.0625,-6.25 0.694365,-1.08005 1.912884,-1.62487 3.6875,-1.625 z m 69.702626,74.60302 15.46875,146.21875 26.125,0 7.03125,-85.90625 1.21875,0 7.21875,85.90625 25.749996,0 13.8125,-146.21875 -23.5625,0 -4.499996,86.0625 -1.21875,0 -7.75,-86.0625 -21.78125,0 -6.6875,86.0625 -1.25,0 -5.625,-86.0625 z m 101.999996,0 0,146.21875 24.96875,0 0,-51.6875 5.78125,0 c 11.19559,0 18.50646,-1.69009 21.90625,-5.03125 3.39966,-3.39966 5.09375,-11.6863 5.09375,-24.875 l 0,-34.90625 c 0,-13.01257 -1.69409,-21.22514 -5.09375,-24.625 -3.34117,-3.39959 -10.73119,-5.2588 -22.0625,-5.09375 z m 24.96875,19.0625 1.84375,0 c 2.52045,1.3e-4 4.1442,0.46464 4.90625,1.34375 0.76197,0.87937 1.15621,3.51017 1.15625,7.90625 l 0,38.15625 c -4e-5,4.04458 -0.39428,6.53097 -1.15625,7.46875 -0.70343,0.87931 -2.2179,1.31257 -4.5625,1.3125 l -2.1875,0 z M 2.1298187,497.91557 c -3.793162,7e-5 -6.4378889,0.7523 -7.9375,2.28125 -1.4996227,1.52909 -2.25,4.42579 -2.25,8.71875 l 0,2.875 -2.8124997,0 0,8.34375 2.8124997,0 0,51.46875 10.84375,0 0,-51.46875 4.84375,0 0,-8.34375 -4.84375,0 0,-2.78125 c -1.5e-5,-0.97027 0.176539,-1.68572 0.5,-2.15625 0.323432,-0.49981 0.823686,-0.74993 1.5,-0.75 l 2.84375,0 0,-8.1875 z m -28.5312497,13.53125 c -5.08695,6e-5 -8.44527,0.75044 -10.0625,2.25 -1.617238,1.49967 -2.4375,4.60787 -2.4375,9.3125 l 0,37.46875 c 0,4.61648 0.818416,7.68973 2.40625,9.21875 1.587825,1.49962 4.878108,2.25 9.90625,2.25 5.233943,0 8.663991,-0.75038 10.28125,-2.25 1.646613,-1.49961 2.46875,-4.57286 2.46875,-9.21875 l 0,-37.46875 c 0,-4.61641 -0.822137,-7.68967 -2.46875,-9.21875 -1.617259,-1.55837 -4.977425,-2.34369 -10.09375,-2.34375 z m 0.09375,8.375 c 0.58807,5e-5 0.9835,0.24833 1.21875,0.71875 0.264622,0.44112 0.406233,1.19334 0.40625,2.28125 l 0,37.75 c -1.7e-5,1.2644 -0.141628,2.1196 -0.40625,2.53125 -0.23525,0.38226 -0.63068,0.56251 -1.21875,0.5625 -0.617504,10e-6 -1.080971,-0.24827 -1.375,-0.71875 -0.294056,-0.49986 -0.437514,-1.28703 -0.4375,-2.375 l 0,-37.75 c -1.4e-5,-1.17613 0.110349,-1.96329 0.375,-2.375 0.264625,-0.41161 0.761187,-0.62495 1.4375,-0.625 z m -94.884139,-27.58043 c 1.85168,9e-5 3.1659,0.6406 3.9375,1.875 0.84867,1.23457 1.24995,3.31816 1.25,6.25 l 0,47.09375 c -5e-5,3.08626 -0.38475,5.2177 -1.15625,6.375 -0.77161,1.15736 -2.10241,1.71877 -4.03125,1.71875 -1.77463,2e-5 -3.04098,-0.5448 -3.8125,-1.625 -0.7716,-1.15731 -1.18754,-3.30534 -1.1875,-6.46875 l 0,-47.09375 c -4e-5,-3.31761 0.36806,-5.49689 1.0625,-6.5 0.77151,-1.08009 2.08572,-1.62491 3.9375,-1.625 z"
           id="path3045"
           inkscape:connector-curvature="0"
           sodipodi:nodetypes="ccsscscssccccsscscsccccccccccccsccccccccccccccccccccccccccccccccccscsscsccccccccccccsccccccccccccccccccsscscsscccccccccccccccccccccccc" />
      </g>
      <g
         transform="translate(-40,140)"
         style="font-size:65.83947754px;font-style:normal;font-weight:normal;line-height:125%;letter-spacing:0px;word-spacing:0px;fill:#000000;fill-opacity:1;stroke:none;font-family:Sans"
         id="g3051" />
      <g
         style="font-size:40px;font-style:normal;font-weight:normal;line-height:125%;letter-spacing:0px;word-spacing:0px;fill:#000000;fill-opacity:1;stroke:none;font-family:Sans"
         id="g3053"
         transform="matrix(1.645987,0,0,1.645987,-61.333439,-267.41512)" />
      <g
         transform="translate(-40,140)"
         style="font-size:25.09165573px;font-style:normal;font-weight:normal;line-height:125%;letter-spacing:0px;word-spacing:0px;fill:#000000;fill-opacity:1;stroke:none;font-family:Sans"
         id="g3055" />
      <g
         style="font-size:50.01895905px;font-style:normal;font-weight:normal;line-height:125%;letter-spacing:0px;word-spacing:0px;fill:#000000;fill-opacity:1;stroke:none;font-family:Sans"
         id="g3840"
         transform="matrix(1.5081126,-0.29561691,-0.18870194,0.95827612,107.14703,346.90076)" />
    </g>
  </g>
</svg>
